<svg xmlns="http://www.w3.org/2000/svg" width="93.24" height="43.449" viewBox="0 0 93.24 43.449">
  <g id="logo" transform="translate(0 0)">
    <path id="Path_1" data-name="Path 1" d="M-98.982,399.609v18.85a2.542,2.542,0,0,1-1.3,2.252l-16.3,9.425a2.569,2.569,0,0,1-2.608,0l-16.3-9.425a2.666,2.666,0,0,1-1.3-2.252v-18.85a2.542,2.542,0,0,1,1.3-2.253l11.025-6.4a2.561,2.561,0,0,1,3.853,2.252v.474a2.542,2.542,0,0,1-1.3,2.252l-8.239,4.742a2.542,2.542,0,0,0-1.3,2.252v.237a2.58,2.58,0,0,0,3.853,2.252l3.082-1.778a2.561,2.561,0,0,1,3.853,2.252v.237a2.542,2.542,0,0,1-1.3,2.252l-8.239,4.742a2.432,2.432,0,0,0-.948.949,2.519,2.519,0,0,0,.178,2.845,2.219,2.219,0,0,0,.771.711l.3.178a2.413,2.413,0,0,0,2.371,0c3.675-2.134,7.35-4.268,11.085-6.4a2.542,2.542,0,0,0,1.3-2.252V393.266a2.6,2.6,0,0,1,3.853-2.252l.237.119a2.542,2.542,0,0,1,1.3,2.253v18.85a2.542,2.542,0,0,1-1.3,2.253l-8.358,4.8a2.561,2.561,0,0,0,0,4.446l.178.119a2.569,2.569,0,0,0,2.608,0l10.966-6.342a2.666,2.666,0,0,0,1.3-2.253v-7.35a2.681,2.681,0,0,1-3.616-1.008,2.7,2.7,0,0,1-.356-1.3,2.573,2.573,0,0,1,1.363-2.312l2.608-1.482V399.55a2.58,2.58,0,0,1,3.853-2.253l.237.119a2.386,2.386,0,0,1,1.3,2.193" transform="translate(136.8 -387.042)" fill="#822982"/>
    <g id="Group_137" data-name="Group 137" transform="translate(48.902 0)">
      <path id="Path_2" data-name="Path 2" d="M-48.017,408.6a3.267,3.267,0,0,0-.889,2.371v1.541h4.8a2.564,2.564,0,0,0,1.541-.356,1.374,1.374,0,0,0,.415-1.185,3.135,3.135,0,0,0-.889-2.43,3.658,3.658,0,0,0-2.549-.83,2.9,2.9,0,0,0-2.43.889m5.394,11.2a5.914,5.914,0,0,0,2.075-1.422l3.26,2.964c-1.6,2.015-4.268,2.964-7.884,2.964-3.2,0-5.572-.593-6.994-1.838s-2.134-3.2-2.134-5.928v-6.046a6.227,6.227,0,0,1,2.312-5.1,9.927,9.927,0,0,1,6.4-1.9,9.544,9.544,0,0,1,6.52,2.015,7.243,7.243,0,0,1,2.371,5.809,11.236,11.236,0,0,1-.3,2.845,2.584,2.584,0,0,1-1.245,1.482,6.316,6.316,0,0,1-2.667.474h-7.884v.356c0,2.43,1.245,3.616,3.675,3.616a4.662,4.662,0,0,0,2.49-.3" transform="translate(54.3 -392.297)" fill="#4f2b78"/>
      <path id="Path_3" data-name="Path 3" d="M-18.155,414.119a7.384,7.384,0,0,1-.83-3.912V391.18a3.379,3.379,0,0,0-.415-1.838A5.708,5.708,0,0,0-21,387.8l3.675-3.2a6.7,6.7,0,0,1,2.964,2.49,8,8,0,0,1,.83,3.912v19.028a3.379,3.379,0,0,0,.415,1.837,5.709,5.709,0,0,0,1.6,1.541l-3.675,3.2a6.7,6.7,0,0,1-2.964-2.49" transform="translate(40.739 -384.6)" fill="#4f2b78"/>
      <path id="Path_4" data-name="Path 4" d="M5.628,401.97v8.18a4.3,4.3,0,0,0,.533,2.49A2.2,2.2,0,0,0,8,413.351h3.319v4.209H8a12.2,12.2,0,0,1-4.623-.711,4.75,4.75,0,0,1-2.49-2.312,10.036,10.036,0,0,1-.771-4.386V394.68A3.379,3.379,0,0,0-.3,392.842,5.707,5.707,0,0,0-1.9,391.3l3.675-3.2a6.7,6.7,0,0,1,2.964,2.49,8,8,0,0,1,.83,3.912v3.26h5.75v4.209Z" transform="translate(32.96 -386.025)" fill="#4f2b78"/>
      <path id="Path_5" data-name="Path 5" d="M-54.063,450.045a.945.945,0,0,1-.237-.711v-1.185a.945.945,0,0,1,.237-.711,1.006,1.006,0,0,1,.771-.237h1.067v.356h-1.067a.917.917,0,0,0-.474.119.583.583,0,0,0-.178.474v.415h1.482v.356h-1.482v.415a.673.673,0,0,0,.178.474.583.583,0,0,0,.474.178h1.067v.356h-1.067a1.319,1.319,0,0,1-.771-.3" transform="translate(54.3 -410.093)" fill="#4f2b78"/>
      <path id="Path_6" data-name="Path 6" d="M-47.363,450.045a.945.945,0,0,1-.237-.711V447.2h.415v2.134a1.117,1.117,0,0,0,.119.474.584.584,0,0,0,.474.178h1.008v.356h-1.008a1.319,1.319,0,0,1-.771-.3" transform="translate(51.571 -410.093)" fill="#4f2b78"/>
      <path id="Path_7" data-name="Path 7" d="M-43.007,449.315a.5.5,0,0,0-.119.356v.237h.771c.119,0,.178,0,.178-.059.059,0,.059-.059.059-.178a.843.843,0,0,0-.119-.356.636.636,0,0,0-.356-.119.5.5,0,0,0-.415.119m.711,1.363c.059-.059.178-.119.237-.178l.237.237a.544.544,0,0,1-.356.237,1.158,1.158,0,0,1-.474.059,1.264,1.264,0,0,1-.711-.178.688.688,0,0,1-.237-.593v-.652a.578.578,0,0,1,.237-.533,1.066,1.066,0,0,1,.652-.178.81.81,0,0,1,.652.237.687.687,0,0,1,.237.593.5.5,0,0,1-.119.356.5.5,0,0,1-.356.119h-.948v.119a.5.5,0,0,0,.119.356.691.691,0,0,0,.415.119c.237-.059.356-.059.415-.119" transform="translate(49.942 -410.786)" fill="#4f2b78"/>
      <path id="Path_8" data-name="Path 8" d="M-38.355,450.5a.512.512,0,0,0,.178-.356v-.3a.446.446,0,0,1-.3.059h-.237c-.3.059-.474.178-.474.356a.308.308,0,0,0,.119.237.443.443,0,0,0,.3.059.52.52,0,0,0,.415-.059m.593.059c0,.059.059.059.119.119l-.237.237c-.178-.059-.237-.178-.3-.356a.591.591,0,0,1-.3.237,1.007,1.007,0,0,1-.415.059.725.725,0,0,1-.533-.178.584.584,0,0,1-.178-.474.539.539,0,0,1,.237-.474.885.885,0,0,1,.593-.178l.3-.059a.613.613,0,0,0,.237-.059c.059-.059.059-.059.059-.178s-.059-.178-.119-.3a.5.5,0,0,0-.356-.119.445.445,0,0,0-.3.059c-.059.059-.178.119-.237.178l-.237-.178a.593.593,0,0,1,.3-.237,1.158,1.158,0,0,1,.474-.059.953.953,0,0,1,.652.178.578.578,0,0,1,.237.533v.948c-.059.237-.059.237,0,.3" transform="translate(48.313 -410.664)" fill="#4f2b78"/>
      <path id="Path_9" data-name="Path 9" d="M-34.1,448.953l-.119.356a.535.535,0,0,0-.3-.059.512.512,0,0,0-.356.178.893.893,0,0,0-.237.474v1.185h-.415v-1.6a.218.218,0,0,0-.059-.178c0-.059-.059-.059-.119-.119l.237-.237a.814.814,0,0,1,.237.178.444.444,0,0,1,.059.3c.059-.119.178-.237.237-.356a.843.843,0,0,1,.356-.118c.3-.119.356-.059.474,0" transform="translate(46.725 -410.78)" fill="#4f2b78"/>
      <path id="Path_10" data-name="Path 10" d="M-30.762,449.063a.725.725,0,0,1,.178.533v1.423H-31v-1.363a.842.842,0,0,0-.119-.356.453.453,0,0,0-.3-.119.842.842,0,0,0-.356.119.955.955,0,0,0-.237.415v1.3h-.415v-1.6a.218.218,0,0,0-.059-.178c0-.059-.059-.059-.119-.119l.237-.237a.818.818,0,0,1,.237.178c.059.059.059.119.059.237a.714.714,0,0,1,.3-.3.856.856,0,0,1,.415-.119c.3-.059.474,0,.593.178" transform="translate(45.463 -410.771)" fill="#4f2b78"/>
      <path id="Path_11" data-name="Path 11" d="M-27.841,450.245a.444.444,0,0,1-.059-.3v-1.6h.415v1.6a.218.218,0,0,0,.059.178c0,.059.059.059.119.119l-.237.237a1.618,1.618,0,0,1-.3-.237m0-2.43a.217.217,0,0,1-.059-.178.218.218,0,0,1,.059-.178.218.218,0,0,1,.178-.059.218.218,0,0,1,.178.059.218.218,0,0,1,.059.178.217.217,0,0,1-.059.178.218.218,0,0,1-.178.059.218.218,0,0,1-.178-.059" transform="translate(43.549 -410.175)" fill="#4f2b78"/>
      <path id="Path_12" data-name="Path 12" d="M-24.362,449.063a.725.725,0,0,1,.178.533v1.423H-24.6v-1.363a.842.842,0,0,0-.119-.356.453.453,0,0,0-.3-.119.842.842,0,0,0-.356.119.955.955,0,0,0-.237.415v1.3h-.415v-1.6a.218.218,0,0,0-.059-.178c0-.059-.059-.059-.119-.119l.237-.237a.818.818,0,0,1,.237.178c.059.059.059.119.059.237a.714.714,0,0,1,.3-.3.856.856,0,0,1,.415-.119c.3-.059.474,0,.593.178" transform="translate(42.856 -410.771)" fill="#4f2b78"/>
      <path id="Path_13" data-name="Path 13" d="M-20.4,450.437a.544.544,0,0,0,.237-.356v-.652a.756.756,0,0,0-.237-.356.842.842,0,0,0-.356-.119.673.673,0,0,0-.474.178.724.724,0,0,0-.178.533v.119a.827.827,0,0,0,.178.533.584.584,0,0,0,.474.178c.178.059.3.059.356-.059m.771-1.482-.119.119c0,.059-.059.119-.059.178v1.719a.886.886,0,0,1-.178.593.954.954,0,0,1-.652.178h-.533v-.3h.533a.5.5,0,0,0,.356-.118.5.5,0,0,0,.119-.356v-.415c-.119.237-.356.3-.652.3a.85.85,0,0,1-.652-.3,1.006,1.006,0,0,1-.237-.771v-.119a1.729,1.729,0,0,1,.119-.533.607.607,0,0,1,.3-.356,1.117,1.117,0,0,1,.474-.119.877.877,0,0,1,.415.059.592.592,0,0,1,.3.237c0-.059.059-.118.059-.178l.178-.178Z" transform="translate(41.024 -410.664)" fill="#4f2b78"/>
      <path id="Path_14" data-name="Path 14" d="M-14.352,447.556H-15.3V447.2h2.371v.356h-1.008v2.727h-.415Z" transform="translate(38.417 -410.093)" fill="#4f2b78"/>
      <path id="Path_15" data-name="Path 15" d="M-11.307,449.315a.5.5,0,0,0-.119.356v.237h.771c.119,0,.178,0,.178-.059.059,0,.059-.059.059-.178a.843.843,0,0,0-.119-.356.636.636,0,0,0-.356-.119c-.237,0-.356,0-.415.119m.711,1.363c.059-.059.178-.119.237-.178l.237.237a.544.544,0,0,1-.356.237,1.158,1.158,0,0,1-.474.059,1.264,1.264,0,0,1-.711-.178.688.688,0,0,1-.237-.593v-.652a.578.578,0,0,1,.237-.533,1.066,1.066,0,0,1,.652-.178.81.81,0,0,1,.652.237.687.687,0,0,1,.237.593.5.5,0,0,1-.119.356.5.5,0,0,1-.356.119h-.83v.119a.5.5,0,0,0,.119.356.691.691,0,0,0,.415.119c.119-.059.178-.059.3-.119" transform="translate(37.033 -410.786)" fill="#4f2b78"/>
      <path id="Path_16" data-name="Path 16" d="M-7.863,450.856a.688.688,0,0,1-.237-.593v-.593a.687.687,0,0,1,.237-.593,1.265,1.265,0,0,1,.711-.178.88.88,0,0,1,.771.356l-.237.237a.318.318,0,0,0-.237-.178.445.445,0,0,0-.3-.059.856.856,0,0,0-.415.119c-.119.059-.119.178-.119.356v.593a.5.5,0,0,0,.119.356.857.857,0,0,0,.415.119.444.444,0,0,0,.3-.059c.059-.059.178-.119.237-.178l.237.237a.591.591,0,0,1-.3.237,1.158,1.158,0,0,1-.474.059,1.651,1.651,0,0,1-.711-.237" transform="translate(35.485 -410.786)" fill="#4f2b78"/>
      <path id="Path_17" data-name="Path 17" d="M-2.962,448.263a.724.724,0,0,1,.178.533v1.423H-3.2v-1.363a.842.842,0,0,0-.119-.356.453.453,0,0,0-.3-.119.842.842,0,0,0-.356.119.954.954,0,0,0-.237.415v1.3h-.415v-2.786a.218.218,0,0,0-.059-.178c0-.059-.059-.059-.119-.119l.237-.237a.819.819,0,0,1,.237.178.444.444,0,0,1,.059.3v1.008a.715.715,0,0,1,.3-.3.857.857,0,0,1,.415-.119c.3.059.474.119.593.3" transform="translate(34.141 -409.971)" fill="#4f2b78"/>
      <path id="Path_18" data-name="Path 18" d="M.938,449.063a.725.725,0,0,1,.178.533v1.423H.7v-1.363a.842.842,0,0,0-.119-.356.453.453,0,0,0-.3-.119.842.842,0,0,0-.356.119.955.955,0,0,0-.237.415v1.3H-.722v-1.6a.218.218,0,0,0-.059-.178c0-.059-.059-.059-.119-.119l.237-.237a.818.818,0,0,1,.237.178c.059.059.059.119.059.237a.714.714,0,0,1,.3-.3.856.856,0,0,1,.415-.119c.3-.059.474,0,.593.178" transform="translate(32.553 -410.771)" fill="#4f2b78"/>
      <path id="Path_19" data-name="Path 19" d="M4.745,450.578c.119-.059.119-.237.119-.356v-.593a.5.5,0,0,0-.119-.356.842.842,0,0,0-.356-.119.5.5,0,0,0-.356.119c-.119.059-.119.237-.119.356v.593a.5.5,0,0,0,.119.356.841.841,0,0,0,.356.119.5.5,0,0,0,.356-.119m-1.008.237a.688.688,0,0,1-.237-.593v-.593a.687.687,0,0,1,.237-.593,1.078,1.078,0,0,1,.652-.237.738.738,0,0,1,.652.237.687.687,0,0,1,.237.593v.593a.688.688,0,0,1-.237.593,1.079,1.079,0,0,1-.652.237,1.367,1.367,0,0,1-.652-.237" transform="translate(30.761 -410.745)" fill="#4f2b78"/>
      <path id="Path_20" data-name="Path 20" d="M7.437,450.042a.444.444,0,0,1-.059-.3v-2.312a.218.218,0,0,0-.059-.178c0-.059-.059-.059-.119-.119l.237-.237a.819.819,0,0,1,.237.178.444.444,0,0,1,.059.3v2.253a.217.217,0,0,0,.059.178c0,.059.059.059.119.119l-.237.237a.308.308,0,0,1-.237-.119" transform="translate(29.254 -409.971)" fill="#4f2b78"/>
      <path id="Path_21" data-name="Path 21" d="M10.445,450.578c.119-.059.119-.237.119-.356v-.593a.5.5,0,0,0-.119-.356.842.842,0,0,0-.356-.119.5.5,0,0,0-.356.119c-.119.059-.119.237-.119.356v.593a.5.5,0,0,0,.119.356.841.841,0,0,0,.356.119.5.5,0,0,0,.356-.119m-1.008.237a.688.688,0,0,1-.237-.593v-.593a.687.687,0,0,1,.237-.593,1.078,1.078,0,0,1,.652-.237.738.738,0,0,1,.652.237.687.687,0,0,1,.237.593v.593a.688.688,0,0,1-.237.593,1.079,1.079,0,0,1-.652.237,1.367,1.367,0,0,1-.652-.237" transform="translate(28.44 -410.745)" fill="#4f2b78"/>
      <path id="Path_22" data-name="Path 22" d="M14.4,450.437a.544.544,0,0,0,.237-.356v-.652a.756.756,0,0,0-.237-.356.842.842,0,0,0-.356-.119.673.673,0,0,0-.474.178.724.724,0,0,0-.178.533v.119a.827.827,0,0,0,.178.533.584.584,0,0,0,.474.178c.119.059.3.059.356-.059m.771-1.482-.119.119c0,.059-.059.119-.059.178v1.719a.886.886,0,0,1-.178.593.954.954,0,0,1-.652.178h-.533v-.3h.533a.419.419,0,0,0,.474-.474v-.415c-.119.237-.356.3-.652.3a.85.85,0,0,1-.652-.3,1.006,1.006,0,0,1-.237-.771v-.119a1.729,1.729,0,0,1,.119-.533.607.607,0,0,1,.3-.356,1.117,1.117,0,0,1,.474-.119.877.877,0,0,1,.415.059.592.592,0,0,1,.3.237c0-.059.059-.118.059-.178l.178-.178Z" transform="translate(26.852 -410.664)" fill="#4f2b78"/>
      <path id="Path_23" data-name="Path 23" d="M19.115,448.819v2.312a.687.687,0,0,1-.237.593.954.954,0,0,1-.652.178h-.533v-.3h.533a.419.419,0,0,0,.474-.474v-.593a.717.717,0,0,1-.711.356.629.629,0,0,1-.711-.711v-.948a.218.218,0,0,0-.059-.178c0-.059-.059-.059-.119-.119l.237-.237a.818.818,0,0,1,.237.178.444.444,0,0,1,.059.3v.889a.842.842,0,0,0,.119.356.453.453,0,0,0,.3.119.608.608,0,0,0,.593-.593V448.7h.474Z" transform="translate(25.223 -410.704)" fill="#4f2b78"/>
    </g>
  </g>
</svg>
