<svg xmlns="http://www.w3.org/2000/svg" width="93.544" height="93.545" viewBox="0 0 93.544 93.545">
  <g id="seal" transform="translate(-96.517 -88.772)">
    <g id="Group_220" data-name="Group 220" transform="translate(96.517 88.772)">
      <g id="Group_218" data-name="Group 218" transform="translate(17.546 17.547)">
        <path id="Path_264" data-name="Path 264" d="M162.234,183.716A29.233,29.233,0,1,1,182.9,133.824h0a29.217,29.217,0,0,1-20.666,49.891Zm0-57.562a28.366,28.366,0,1,0,20.037,8.3h0a28.252,28.252,0,0,0-20.037-8.3Z" transform="translate(-133.008 -125.264)" fill="#a18548"/>
      </g>
      <g id="Group_219" data-name="Group 219">
        <path id="Path_265" data-name="Path 265" d="M143.289,182.317a46.629,46.629,0,1,1,18.207-3.676A46.481,46.481,0,0,1,143.289,182.317Zm0-92.655A45.936,45.936,0,1,0,175.733,103.1h0a45.74,45.74,0,0,0-32.444-13.439Z" transform="translate(-96.517 -88.772)" fill="#822982"/>
      </g>
      <path id="Path_266" data-name="Path 266" d="M186.829,121.459a44.106,44.106,0,1,0,3.456,17.115A43.814,43.814,0,0,0,186.829,121.459Zm-4.808,8.523a1.009,1.009,0,1,1-.124,1.421A1.008,1.008,0,0,1,182.02,129.982Zm-10.25-19.016a1.009,1.009,0,1,1-.124,1.421A1.009,1.009,0,0,1,171.77,110.966Zm-5.928-4.925a1.009,1.009,0,1,1-.124,1.421A1.009,1.009,0,0,1,165.842,106.041Zm-6.558-3.121a1.009,1.009,0,1,1-.124,1.421A1.009,1.009,0,0,1,159.285,102.92Zm-6.759-1.8a1.009,1.009,0,1,1-.124,1.421A1.009,1.009,0,0,1,152.525,101.12Zm-7.078-.458a1.009,1.009,0,1,1,.124,1.421A1.009,1.009,0,0,1,145.447,100.662Zm-6.759.582a1.009,1.009,0,1,1,.124,1.421A1.009,1.009,0,0,1,138.688,101.244Zm-6.759,1.8a1.009,1.009,0,1,1,.124,1.421A1.008,1.008,0,0,1,131.929,103.043Zm-6.558,3.122a1.009,1.009,0,1,1,.124,1.421A1.009,1.009,0,0,1,125.371,106.164Zm-5.928,4.925a1.009,1.009,0,1,1,.124,1.421A1.009,1.009,0,0,1,119.443,111.089Zm-10.25,19.016a1.009,1.009,0,1,1,.124,1.421A1.009,1.009,0,0,1,109.193,130.105Zm-1.009,6.811a1.009,1.009,0,1,1,.124,1.421A1.009,1.009,0,0,1,108.185,136.916Zm2,10.048a1.009,1.009,0,1,1,.77-1.2A1.009,1.009,0,0,1,110.181,146.964Zm1.128-24.061a1.009,1.009,0,1,1,.123,1.421A1.008,1.008,0,0,1,111.309,122.9Zm2,32.638a1.009,1.009,0,1,1,.769-1.2A1.009,1.009,0,0,1,113.306,155.541Zm1.683-39.15a1.009,1.009,0,1,1,.124,1.421A1.009,1.009,0,0,1,114.989,116.391Zm3.678,47.785a1.009,1.009,0,1,1,.77-1.2A1.008,1.008,0,0,1,118.667,164.176Zm7.692,6.376a1.009,1.009,0,1,1,.769-1.2A1.009,1.009,0,0,1,126.359,170.552Zm9.3,4.383a1.009,1.009,0,1,1,.769-1.2A1.008,1.008,0,0,1,135.655,174.935Zm11.337,1.55a1.009,1.009,0,1,1-.124-1.421A1.009,1.009,0,0,1,146.992,176.485Zm11.188-2.319a1.009,1.009,0,1,1-.77-1.2A1.009,1.009,0,0,1,158.181,174.166Zm9.3-4.383a1.009,1.009,0,1,1-.769-1.2A1.009,1.009,0,0,1,167.476,169.783Zm7.692-6.376a1.009,1.009,0,1,1-.769-1.2A1.008,1.008,0,0,1,175.168,163.406Zm-.051-12.666a31.357,31.357,0,1,1,2.457-12.166A31.158,31.158,0,0,1,175.117,150.74Zm2.4-32.928a1.009,1.009,0,1,1,.124-1.421A1.009,1.009,0,0,1,177.521,117.812Zm3.009,36.958a1.009,1.009,0,1,1-.77-1.2A1.009,1.009,0,0,1,180.53,154.771Zm.672-30.446a1.009,1.009,0,1,1,.124-1.421A1.009,1.009,0,0,1,181.2,124.324Zm2.452,21.87a1.009,1.009,0,1,1-.77-1.2A1.009,1.009,0,0,1,183.655,146.194Zm.672-7.857a1.009,1.009,0,1,1,.124-1.421A1.009,1.009,0,0,1,184.326,138.337Z" transform="translate(-99.545 -91.801)" fill="#fff" stroke="#822982" stroke-width="1"/>
      <g id="Ellipse_22" data-name="Ellipse 22" transform="translate(13.264 13.166)" fill="#fff" stroke="#822982" stroke-width="1.3">
        <circle cx="33.425" cy="33.425" r="33.425" stroke="none"/>
        <circle cx="33.425" cy="33.425" r="32.775" fill="none"/>
      </g>
    </g>
    <g id="logo" transform="translate(114.278 121.919)">
      <path id="Path_1" data-name="Path 1" d="M-113.082,396.25v11.822a1.594,1.594,0,0,1-.818,1.413l-10.223,5.911a1.611,1.611,0,0,1-1.636,0l-10.223-5.911a1.672,1.672,0,0,1-.818-1.413V396.25a1.594,1.594,0,0,1,.818-1.413l6.915-4.015a1.606,1.606,0,0,1,2.416,1.413v.3a1.594,1.594,0,0,1-.818,1.413l-5.167,2.974a1.594,1.594,0,0,0-.818,1.413v.149a1.618,1.618,0,0,0,2.416,1.413l1.933-1.115a1.606,1.606,0,0,1,2.416,1.413v.149a1.594,1.594,0,0,1-.818,1.413l-5.167,2.974a1.525,1.525,0,0,0-.595.595,1.58,1.58,0,0,0,.112,1.784,1.391,1.391,0,0,0,.483.446l.186.112a1.514,1.514,0,0,0,1.487,0c2.3-1.338,4.61-2.677,6.952-4.015a1.594,1.594,0,0,0,.818-1.413v-9.963a1.631,1.631,0,0,1,2.416-1.413l.149.074a1.594,1.594,0,0,1,.818,1.413v11.822a1.594,1.594,0,0,1-.818,1.413l-5.242,3.011a1.606,1.606,0,0,0,0,2.788l.112.074a1.611,1.611,0,0,0,1.636,0l6.878-3.978a1.672,1.672,0,0,0,.818-1.413v-4.61a1.682,1.682,0,0,1-2.268-.632,1.7,1.7,0,0,1-.223-.818,1.614,1.614,0,0,1,.855-1.45l1.636-.929v-1.413a1.618,1.618,0,0,1,2.416-1.413l.149.074a1.5,1.5,0,0,1,.818,1.376" transform="translate(136.8 -388.368)" fill="#822982"/>
      <g id="Group_137" data-name="Group 137" transform="translate(30.67 0)">
        <path id="Path_2" data-name="Path 2" d="M-50.359,406.7a2.049,2.049,0,0,0-.558,1.487v.967h3.011a1.608,1.608,0,0,0,.967-.223.862.862,0,0,0,.26-.743,1.966,1.966,0,0,0-.558-1.524,2.294,2.294,0,0,0-1.6-.52,1.82,1.82,0,0,0-1.524.558m3.383,7.026a3.709,3.709,0,0,0,1.3-.892l2.045,1.859c-1,1.264-2.677,1.859-4.944,1.859a6.667,6.667,0,0,1-4.387-1.152,4.676,4.676,0,0,1-1.338-3.718v-3.792a3.905,3.905,0,0,1,1.45-3.2,6.226,6.226,0,0,1,4.015-1.19,5.986,5.986,0,0,1,4.089,1.264,4.543,4.543,0,0,1,1.487,3.643,7.047,7.047,0,0,1-.186,1.784,1.621,1.621,0,0,1-.781.929,3.962,3.962,0,0,1-1.673.3h-4.944v.223a2.021,2.021,0,0,0,2.3,2.268,2.924,2.924,0,0,0,1.561-.186" transform="translate(54.3 -396.474)" fill="#4f2b78"/>
        <path id="Path_3" data-name="Path 3" d="M-19.216,403.114a4.631,4.631,0,0,1-.52-2.454V388.727a2.119,2.119,0,0,0-.26-1.152,3.58,3.58,0,0,0-1-.967l2.3-2.008a4.2,4.2,0,0,1,1.859,1.561,5.015,5.015,0,0,1,.52,2.454v11.934a2.119,2.119,0,0,0,.26,1.152,3.58,3.58,0,0,0,1,.967l-2.3,2.008a4.2,4.2,0,0,1-1.859-1.561" transform="translate(33.38 -384.6)" fill="#4f2b78"/>
        <path id="Path_4" data-name="Path 4" d="M2.821,396.8v5.13a2.7,2.7,0,0,0,.335,1.561,1.383,1.383,0,0,0,1.152.446H6.39v2.64H4.308a7.652,7.652,0,0,1-2.9-.446,2.979,2.979,0,0,1-1.561-1.45,6.294,6.294,0,0,1-.483-2.751v-9.7a2.119,2.119,0,0,0-.26-1.152,3.58,3.58,0,0,0-1-.967L.4,388.1a4.2,4.2,0,0,1,1.859,1.561,5.015,5.015,0,0,1,.52,2.454v2.045H6.39V396.8Z" transform="translate(21.38 -386.799)" fill="#4f2b78"/>
        <path id="Path_5" data-name="Path 5" d="M-54.151,448.984a.593.593,0,0,1-.149-.446v-.743a.593.593,0,0,1,.149-.446.631.631,0,0,1,.483-.149H-53v.223h-.669a.575.575,0,0,0-.3.074.366.366,0,0,0-.112.3v.26h.929v.223h-.929v.26a.422.422,0,0,0,.112.3.366.366,0,0,0,.3.111H-53v.223h-.669a.827.827,0,0,1-.483-.186" transform="translate(54.3 -423.928)" fill="#4f2b78"/>
        <path id="Path_6" data-name="Path 6" d="M-47.451,448.984a.593.593,0,0,1-.149-.446V447.2h.26v1.338a.7.7,0,0,0,.074.3.366.366,0,0,0,.3.111h.632v.223h-.632a.827.827,0,0,1-.483-.186" transform="translate(50.091 -423.928)" fill="#4f2b78"/>
        <path id="Path_7" data-name="Path 7" d="M-43.228,449.16a.314.314,0,0,0-.074.223v.149h.483c.074,0,.112,0,.112-.037.037,0,.037-.037.037-.112a.528.528,0,0,0-.074-.223.4.4,0,0,0-.223-.074.314.314,0,0,0-.26.074m.446.855c.037-.037.112-.074.149-.112l.149.149a.342.342,0,0,1-.223.149.726.726,0,0,1-.3.037.793.793,0,0,1-.446-.111.431.431,0,0,1-.149-.372v-.409a.362.362,0,0,1,.149-.335.668.668,0,0,1,.409-.111.508.508,0,0,1,.409.149.431.431,0,0,1,.149.372.314.314,0,0,1-.074.223.314.314,0,0,1-.223.074h-.595v.074a.314.314,0,0,0,.074.223.434.434,0,0,0,.26.074c.149-.037.223-.037.26-.074" transform="translate(47.578 -424.996)" fill="#4f2b78"/>
        <path id="Path_8" data-name="Path 8" d="M-38.819,449.79a.321.321,0,0,0,.112-.223v-.186a.279.279,0,0,1-.186.037h-.149c-.186.037-.3.112-.3.223a.193.193,0,0,0,.074.149.278.278,0,0,0,.186.037.327.327,0,0,0,.26-.037m.372.037c0,.037.037.037.074.074l-.149.149c-.112-.037-.149-.112-.186-.223a.371.371,0,0,1-.186.149.632.632,0,0,1-.26.037.455.455,0,0,1-.335-.111.366.366,0,0,1-.112-.3.338.338,0,0,1,.149-.3.555.555,0,0,1,.372-.112l.186-.037a.384.384,0,0,0,.149-.037c.037-.037.037-.037.037-.112s-.037-.112-.074-.186a.314.314,0,0,0-.223-.074.279.279,0,0,0-.186.037c-.037.037-.112.074-.149.112l-.149-.112a.372.372,0,0,1,.186-.149.726.726,0,0,1,.3-.037.6.6,0,0,1,.409.112.362.362,0,0,1,.149.335v.595c-.037.149-.037.149,0,.186" transform="translate(45.065 -424.807)" fill="#4f2b78"/>
        <path id="Path_9" data-name="Path 9" d="M-34.7,448.927l-.074.223a.336.336,0,0,0-.186-.037.321.321,0,0,0-.223.111.56.56,0,0,0-.149.3v.744h-.26v-1a.137.137,0,0,0-.037-.112c0-.037-.037-.037-.074-.074l.149-.149a.511.511,0,0,1,.149.112.279.279,0,0,1,.037.186c.037-.074.112-.149.149-.223a.528.528,0,0,1,.223-.074c.186-.074.223-.037.3,0" transform="translate(42.615 -424.986)" fill="#4f2b78"/>
        <path id="Path_10" data-name="Path 10" d="M-31.448,448.988a.454.454,0,0,1,.112.335v.892h-.26v-.855a.528.528,0,0,0-.074-.223.284.284,0,0,0-.186-.074.528.528,0,0,0-.223.074.6.6,0,0,0-.149.26v.818h-.26v-1a.137.137,0,0,0-.037-.112c0-.037-.037-.037-.074-.074l.149-.149a.513.513,0,0,1,.149.112c.037.037.037.074.037.149a.448.448,0,0,1,.186-.186.537.537,0,0,1,.26-.074c.186-.037.3,0,.372.112" transform="translate(40.667 -424.972)" fill="#4f2b78"/>
        <path id="Path_11" data-name="Path 11" d="M-27.863,449.184A.279.279,0,0,1-27.9,449v-1h.26v1a.137.137,0,0,0,.037.112c0,.037.037.037.074.074l-.149.149a1.015,1.015,0,0,1-.186-.149m0-1.524a.136.136,0,0,1-.037-.111.137.137,0,0,1,.037-.112.137.137,0,0,1,.112-.037.137.137,0,0,1,.112.037.137.137,0,0,1,.037.112.136.136,0,0,1-.037.111.137.137,0,0,1-.112.037.137.137,0,0,1-.112-.037" transform="translate(37.714 -424.053)" fill="#4f2b78"/>
        <path id="Path_12" data-name="Path 12" d="M-25.048,448.988a.454.454,0,0,1,.112.335v.892h-.26v-.855a.528.528,0,0,0-.074-.223.284.284,0,0,0-.186-.074.528.528,0,0,0-.223.074.6.6,0,0,0-.149.26v.818h-.26v-1a.137.137,0,0,0-.037-.112c0-.037-.037-.037-.074-.074l.149-.149a.513.513,0,0,1,.149.112c.037.037.037.074.037.149a.448.448,0,0,1,.186-.186.537.537,0,0,1,.26-.074c.186-.037.3,0,.372.112" transform="translate(36.646 -424.972)" fill="#4f2b78"/>
        <path id="Path_13" data-name="Path 13" d="M-20.882,449.752a.341.341,0,0,0,.149-.223v-.409a.474.474,0,0,0-.149-.223.528.528,0,0,0-.223-.074.422.422,0,0,0-.3.112.454.454,0,0,0-.112.335v.074a.519.519,0,0,0,.112.335.366.366,0,0,0,.3.112c.112.037.186.037.223-.037m.483-.929-.074.074c0,.037-.037.074-.037.112v1.078a.555.555,0,0,1-.112.372.6.6,0,0,1-.409.112h-.335v-.186h.335a.314.314,0,0,0,.223-.074.314.314,0,0,0,.074-.223v-.26c-.074.149-.223.186-.409.186a.533.533,0,0,1-.409-.186.631.631,0,0,1-.149-.483v-.074a1.085,1.085,0,0,1,.074-.335.381.381,0,0,1,.186-.223.7.7,0,0,1,.3-.074.551.551,0,0,1,.26.037.372.372,0,0,1,.186.149c0-.037.037-.074.037-.112l.112-.112Z" transform="translate(33.819 -424.807)" fill="#4f2b78"/>
        <path id="Path_14" data-name="Path 14" d="M-14.705,447.423H-15.3V447.2h1.487v.223h-.632v1.71h-.26Z" transform="translate(29.799 -423.928)" fill="#4f2b78"/>
        <path id="Path_15" data-name="Path 15" d="M-11.528,449.16a.314.314,0,0,0-.074.223v.149h.483c.074,0,.112,0,.112-.037.037,0,.037-.037.037-.112a.529.529,0,0,0-.074-.223.4.4,0,0,0-.223-.074c-.149,0-.223,0-.26.074m.446.855c.037-.037.112-.074.149-.112l.149.149a.342.342,0,0,1-.223.149.726.726,0,0,1-.3.037.793.793,0,0,1-.446-.111.431.431,0,0,1-.149-.372v-.409a.362.362,0,0,1,.149-.335.668.668,0,0,1,.409-.111.508.508,0,0,1,.409.149.431.431,0,0,1,.149.372.314.314,0,0,1-.074.223.314.314,0,0,1-.223.074h-.52v.074a.314.314,0,0,0,.074.223.434.434,0,0,0,.26.074c.074-.037.112-.037.186-.074" transform="translate(27.663 -424.996)" fill="#4f2b78"/>
        <path id="Path_16" data-name="Path 16" d="M-7.951,450.127a.431.431,0,0,1-.149-.372v-.372a.431.431,0,0,1,.149-.372.793.793,0,0,1,.446-.111.552.552,0,0,1,.483.223l-.149.149a.2.2,0,0,0-.149-.112.279.279,0,0,0-.186-.037.537.537,0,0,0-.26.074c-.074.037-.074.112-.074.223v.372a.314.314,0,0,0,.074.223.538.538,0,0,0,.26.074.278.278,0,0,0,.186-.037c.037-.037.112-.074.149-.112l.149.149a.371.371,0,0,1-.186.149.726.726,0,0,1-.3.037,1.035,1.035,0,0,1-.446-.149" transform="translate(25.275 -424.996)" fill="#4f2b78"/>
        <path id="Path_17" data-name="Path 17" d="M-3.648,447.755a.454.454,0,0,1,.112.335v.892H-3.8v-.855a.528.528,0,0,0-.074-.223.284.284,0,0,0-.186-.074.529.529,0,0,0-.223.074.6.6,0,0,0-.149.26v.818h-.26v-1.747a.137.137,0,0,0-.037-.112c0-.037-.037-.037-.074-.074l.149-.149a.514.514,0,0,1,.149.112.279.279,0,0,1,.037.186v.632a.448.448,0,0,1,.186-.186.537.537,0,0,1,.26-.074c.186.037.3.074.372.186" transform="translate(23.202 -423.739)" fill="#4f2b78"/>
        <path id="Path_18" data-name="Path 18" d="M.252,448.988a.455.455,0,0,1,.112.335v.892H.1v-.855a.528.528,0,0,0-.074-.223.284.284,0,0,0-.186-.074.528.528,0,0,0-.223.074.6.6,0,0,0-.149.26v.818h-.26v-1a.137.137,0,0,0-.037-.112c0-.037-.037-.037-.074-.074l.149-.149a.513.513,0,0,1,.149.112c.037.037.037.074.037.149a.448.448,0,0,1,.186-.186.537.537,0,0,1,.26-.074c.186-.037.3,0,.372.112" transform="translate(20.752 -424.972)" fill="#4f2b78"/>
        <path id="Path_19" data-name="Path 19" d="M4.281,449.915c.074-.037.074-.149.074-.223v-.372a.314.314,0,0,0-.074-.223.528.528,0,0,0-.223-.074.314.314,0,0,0-.223.074c-.074.037-.074.149-.074.223v.372a.314.314,0,0,0,.074.223.528.528,0,0,0,.223.074.314.314,0,0,0,.223-.074m-.632.149a.431.431,0,0,1-.149-.372v-.372a.431.431,0,0,1,.149-.372.676.676,0,0,1,.409-.149.463.463,0,0,1,.409.149.431.431,0,0,1,.149.372v.372a.431.431,0,0,1-.149.372.677.677,0,0,1-.409.149.857.857,0,0,1-.409-.149" transform="translate(17.988 -424.933)" fill="#4f2b78"/>
        <path id="Path_20" data-name="Path 20" d="M7.349,448.87a.278.278,0,0,1-.037-.186v-1.45a.137.137,0,0,0-.037-.112c0-.037-.037-.037-.074-.074l.149-.149a.514.514,0,0,1,.149.112.279.279,0,0,1,.037.186v1.413a.136.136,0,0,0,.037.111c0,.037.037.037.074.074l-.149.149a.193.193,0,0,1-.149-.074" transform="translate(15.663 -423.739)" fill="#4f2b78"/>
        <path id="Path_21" data-name="Path 21" d="M9.981,449.915c.074-.037.074-.149.074-.223v-.372a.314.314,0,0,0-.074-.223.528.528,0,0,0-.223-.074.314.314,0,0,0-.223.074c-.074.037-.074.149-.074.223v.372a.314.314,0,0,0,.074.223.528.528,0,0,0,.223.074.314.314,0,0,0,.223-.074m-.632.149a.431.431,0,0,1-.149-.372v-.372a.431.431,0,0,1,.149-.372.676.676,0,0,1,.409-.149.463.463,0,0,1,.409.149.431.431,0,0,1,.149.372v.372a.431.431,0,0,1-.149.372.677.677,0,0,1-.409.149.857.857,0,0,1-.409-.149" transform="translate(14.407 -424.933)" fill="#4f2b78"/>
        <path id="Path_22" data-name="Path 22" d="M13.918,449.752a.341.341,0,0,0,.149-.223v-.409a.474.474,0,0,0-.149-.223.529.529,0,0,0-.223-.074.422.422,0,0,0-.3.112.454.454,0,0,0-.112.335v.074a.519.519,0,0,0,.112.335.366.366,0,0,0,.3.112c.074.037.186.037.223-.037m.483-.929-.074.074c0,.037-.037.074-.037.112v1.078a.555.555,0,0,1-.112.372.6.6,0,0,1-.409.112h-.335v-.186h.335a.263.263,0,0,0,.3-.3v-.26c-.074.149-.223.186-.409.186a.533.533,0,0,1-.409-.186.631.631,0,0,1-.149-.483v-.074a1.085,1.085,0,0,1,.074-.335.381.381,0,0,1,.186-.223.7.7,0,0,1,.3-.074.551.551,0,0,1,.26.037.372.372,0,0,1,.186.149c0-.037.037-.074.037-.112l.112-.112Z" transform="translate(11.957 -424.807)" fill="#4f2b78"/>
        <path id="Path_23" data-name="Path 23" d="M18.364,448.774v1.45a.431.431,0,0,1-.149.372.6.6,0,0,1-.409.112h-.335v-.186h.335a.263.263,0,0,0,.3-.3v-.372a.45.45,0,0,1-.446.223.394.394,0,0,1-.446-.446v-.595a.136.136,0,0,0-.037-.111c0-.037-.037-.037-.074-.074l.149-.149a.514.514,0,0,1,.149.112.278.278,0,0,1,.037.186v.558a.528.528,0,0,0,.074.223.284.284,0,0,0,.186.074.381.381,0,0,0,.372-.372V448.7h.3Z" transform="translate(9.444 -424.87)" fill="#4f2b78"/>
      </g>
    </g>
  </g>
</svg>
