<svg id="signature" xmlns="http://www.w3.org/2000/svg" width="92.139" height="77.611" viewBox="0 0 92.139 77.611">
  <path id="Path_269" data-name="Path 269" d="M370.922,319.887a.234.234,0,0,0-.456-.063,203.946,203.946,0,0,0-8.234,24.489c-3.161,2.693-7.166,4.285-11.34,2.946a.229.229,0,0,0-.227.059,7.072,7.072,0,0,1-7.51,2.389,5.85,5.85,0,0,0,.719-1.929.235.235,0,0,0-.223-.294,2.759,2.759,0,0,0-2.6,1.485.238.238,0,0,0,.083.318,6.925,6.925,0,0,0,1.307.669,5.564,5.564,0,0,1-5.254,2.366,5.722,5.722,0,0,1-4.627-6.275c.028-.239-.324-.3-.434-.116a15.86,15.86,0,0,1-4.36,4.771q-.441-2.612-.881-5.227c-.041-.241-.385-.2-.448,0a31.627,31.627,0,0,1-11.65,15.975,149.772,149.772,0,0,1,3.815-19.187,17.946,17.946,0,0,0,7.691-8.789c1.761-4.751.49-9.891-2.04-14.107a29.478,29.478,0,0,0-5.027-6.185c-1.665-1.572-3.635-3.177-6.019-3.327-4-.253-6.4,3.562-7.594,6.868a38.379,38.379,0,0,0-1.6,7.638c-.442,3.1-.8,6.218-1.126,9.336-.468,4.536-.857,9.079-1.293,13.617q-.865.181-1.722.367l-20.751,4.538a.236.236,0,0,0-.055.427,89.212,89.212,0,0,0,20.828,9.012c-.328,2.166-.7,4.323-1.143,6.463l-5.268,8.191c-1.238,1.925-2.492,3.843-3.712,5.778a11.13,11.13,0,0,0-2,5.128.233.233,0,0,0,.294.225c3.995-1.544,6.534-5.037,8.175-8.862a50.531,50.531,0,0,0,2.968-10.308q.536-.835,1.074-1.669l2.595-4.038c8.487,2.524,17.138,4.644,25.358,7.837a71.513,71.513,0,0,1,13.585,6.886c.251.166.484-.237.235-.4-11.761-7.772-25.55-10.764-38.916-14.727l10.308-16.028q.61-.945,1.216-1.89c.559-.231,1.112-.474,1.659-.735.579-.278,1.149-.583,1.71-.906a151.163,151.163,0,0,0-3.783,19.355.234.234,0,0,0,.35.2,32.119,32.119,0,0,0,11.984-15.682l.792,4.7a.234.234,0,0,0,.342.14,16.463,16.463,0,0,0,4.35-4.415,6.18,6.18,0,0,0,5.057,5.894,6.084,6.084,0,0,0,5.776-2.672,7.65,7.65,0,0,0,5.873-.571,6.923,6.923,0,0,0,1.631-1.2c.3-.306.391-.525.859-.484.429.038.875.213,1.305.274a10.489,10.489,0,0,0,4.139-.257,14.5,14.5,0,0,0,5.3-2.689q-2.53,9.65-4.1,19.521-1.01,6.359-1.615,12.776c-.028.3.438.3.466,0a203.206,203.206,0,0,1,5.867-32.8,24.653,24.653,0,0,0,6.939-11.176A34.48,34.48,0,0,0,370.922,319.887Zm-66.869,7.62c.6-4.749.944-10.187,3.8-14.235a6.144,6.144,0,0,1,5.345-2.952c2.841.192,5.172,2.559,7.012,4.518,3.608,3.843,6.6,8.919,6.437,14.35-.154,5.276-3.592,9.65-7.883,12.418q.963-3.54,2.1-7.036c.083-.259-.288-.393-.427-.178q-3.054,4.748-6.106,9.5a70.652,70.652,0,0,1-12.266,3.323C302.7,340.64,303.228,334.057,304.053,327.507Zm-10.995,31.345a76.993,76.993,0,0,1-13.258-6.307l19.063-4.17q1.333-.29,2.68-.567-.24,2.467-.509,4.935c-.31,2.814-.656,5.636-1.072,8.449C297.638,360.466,295.332,359.7,293.059,358.852Zm4.378,14.79c-1.422,5.2-3.892,10.957-9.156,13.2a12.5,12.5,0,0,1,2.216-5.031q1.626-2.538,3.262-5.069l4.709-7.322C298.153,370.834,297.818,372.244,297.436,373.642Zm2-6.587c.225-1.236.434-2.47.636-3.695.087-.523.168-1.047.249-1.572q1.046.326,2.093.638Q300.921,364.74,299.433,367.055Zm3.238-5.035q-1.143-.341-2.281-.693c.689-4.522,1.187-9.066,1.629-13.617a75.094,75.094,0,0,0,11.9-3.171Zm12.42-18.451q2.405-3.744,4.814-7.486-.915,2.923-1.712,5.882A27.122,27.122,0,0,1,315.092,343.569Zm26.482,5.438a2.266,2.266,0,0,1,1.783-1.049,5.633,5.633,0,0,1-.652,1.6A6.631,6.631,0,0,1,341.573,349.007Zm24.56-9.141a21.38,21.38,0,0,1-3.272,3.888q1.579-5.844,3.5-11.591,1.913-5.7,4.17-11.271C370.991,327.383,369.736,334.393,366.134,339.866Z" transform="translate(-278.952 -309.842)" fill="#313133" fill-rule="evenodd"/>
  <path id="Path_270" data-name="Path 270" d="M313.928,334.578a2.917,2.917,0,0,0-2.984.7c-.215.211.115.539.328.33a2.451,2.451,0,0,1,2.534-.583C314.09,335.121,314.213,334.671,313.928,334.578Z" transform="translate(-247.839 -285.88)" fill="#313133" fill-rule="evenodd"/>
</svg>
